PathFileType	4	(X/Y/Z)	/Users/niels/Desktop/University/Third Semester/Perception and Action/Exam/Gymnastics Motion Tracking/Code for Gym Tracking/Analyzed Data/Webcam_Backflip/id5_1_baseline_Sports2D/id5_1_baseline_Sports2D_px_person00.trc
DataRate	CameraRate	NumFrames	NumMarkers	Units	OrigDataRate	OrigDataStartFrame	OrigNumFrames
29.80392156862745	29.80392156862745	8	22	m	29.80392156862745	38	153
Frame#	Time	Hip			RHip			RKnee			RAnkle			RBigToe			RSmallToe			RHeel			LHip			LKnee			LAnkle			LBigToe			LSmallToe			LHeel			Neck			Head			Nose			RShoulder			RElbow			RWrist			LShoulder			LElbow			LWrist		
		X1	Y1	Z1	X2	Y2	Z2	X3	Y3	Z3	X4	Y4	Z4	X5	Y5	Z5	X6	Y6	Z6	X7	Y7	Z7	X8	Y8	Z8	X9	Y9	Z9	X10	Y10	Z10	X11	Y11	Z11	X12	Y12	Z12	X13	Y13	Z13	X14	Y14	Z14	X15	Y15	Z15	X16	Y16	Z16	X17	Y17	Z17	X18	Y18	Z18	X19	Y19	Z19	X20	Y20	Z20	X21	Y21	Z21	X22	Y22	Z22
38	1.275	0.9676251666396269	-0.5872905544347196	0.0	0.9665281699892774	-0.5861132459091587	0.0	1.0312210830642279	-0.6696779527923471	0.0	0.98163045482919	-0.7661708423279219	0.0	1.0218802340790007	-0.7845909235256633	0.0	1.0111220507688217	-0.7883720843633807	0.0	0.9701225857025175	-0.779298951537984	0.0	0.9669105645280203	-0.5845493069585702	0.0	1.0264010098025809	-0.6681947286411284	0.0	0.98442290661914	-0.7575255574614537	0.0	1.0233165377513513	-0.7818371020391293	0.0	1.018206255984423	-0.7793370439312691	0.0	0.9677709665881692	-0.772768539057542	0.0	1.015323518373898	-0.44991342289965586	0.0	1.0481936919145902	-0.38962618489032047	0.0	1.0551098320090022	-0.4222796835641171	0.0	1.0138078915146918	-0.462212142179249	0.0	0.9728835514585782	-0.5148797977247871	0.0	0.9432310520682097	-0.5659604204113369	0.0	1.0049781078932267	-0.4607394838482084	0.0	0.9670974509217289	-0.5155356364372309	0.0	0.9487862618405505	-0.5607465895186194	0.0
39	1.3085526315789473	0.9653340604832622	-0.6026052395358796	0.0	0.9645517650923622	-0.6015831296338807	0.0	1.0334677465386184	-0.6816743148563451	0.0	0.9818026544476036	-0.7764395131969046	0.0	1.0215126891937798	-0.7940990328397576	0.0	1.010993702573685	-0.7982889965161449	0.0	0.9703142247212362	-0.7885411713227587	0.0	0.9658796382391434	-0.6000590519497673	0.0	1.0300095942693663	-0.6802243153435052	0.0	0.9846503581953053	-0.7685404024774621	0.0	1.0252847678199017	-0.7923819223858528	0.0	1.0185706531007674	-0.7882784541770229	0.0	0.9680857153002818	-0.782285715675568	0.0	1.0129410325462223	-0.46460937193685947	0.0	1.0422292790907883	-0.4039075806170889	0.0	1.0510549701328815	-0.43623405148739336	0.0	1.0109300702395574	-0.4786852623069717	0.0	0.9846438098451838	-0.5386606158871659	0.0	0.972328671382153	-0.5931651571458616	0.0	1.0028693212717867	-0.47670406807050303	0.0	0.97699852673595	-0.536818157087895	0.0	0.9750737871834524	-0.5857112278456181	0.0
40	1.3421052631578947	0.963838052889702	-0.6189408171991148	0.0	0.963186598194788	-0.6182345440046862	0.0	1.034125827960358	-0.6967833877999803	0.0	0.9820639001344366	-0.7900252554817334	0.0	1.0211373865342737	-0.806556310033009	0.0	1.01138290500333	-0.8117226389436133	0.0	0.9705126253271081	-0.8009064686597832	0.0	0.9655661200486838	-0.6167346140509099	0.0	1.0317709260273134	-0.6952473788974316	0.0	0.9846680452185975	-0.7827937051866372	0.0	1.0259689468129383	-0.8043749210359022	0.0	1.01674555284219	-0.7975742487377698	0.0	0.9681767744084251	-0.7941860500276198	0.0	1.0090622463835104	-0.4798945062621154	0.0	1.0347949406724082	-0.4179562006603537	0.0	1.0454265964358915	-0.4506738245289003	0.0	1.007080363009832	-0.49524145348631493	0.0	0.9996030157448736	-0.558773401881401	0.0	1.0073885909409082	-0.6103136455363043	0.0	0.9997552370861055	-0.4929908589614165	0.0	0.991435307058221	-0.5549986934806642	0.0	1.0070164863045037	-0.6020534442130441	0.0
41	1.375657894736842	0.9632979508966338	-0.6347233543112516	0.0	0.9624865968064943	-0.6345048786299323	0.0	1.0330905790936158	-0.7137642046275509	0.0	0.9824439362252155	-0.805539463088759	0.0	1.0208941565712353	-0.8203906537288207	0.0	1.0124033506234624	-0.8274209332995849	0.0	0.9707978042658905	-0.8151413922543949	0.0	0.9658028423632018	-0.6330147244728925	0.0	1.0312409719566131	-0.7119683629252165	0.0	0.9844299895903356	-0.7986404960244972	0.0	1.0250118405142497	-0.8158936111547838	0.0	1.0124473604536854	-0.8049872604046657	0.0	0.9680306575319154	-0.8063929245171036	0.0	1.0038720580188947	-0.49419227697965584	0.0	1.0261393259578413	-0.4305066577344019	0.0	1.038430611189649	-0.4641469837742564	0.0	1.0025894911933781	-0.5099712363199785	0.0	1.0159788856025727	-0.570862861909703	0.0	1.0431553913030933	-0.611619584726381	0.0	0.9956244894134945	-0.5076386999179495	0.0	1.0085457456829867	-0.5659734402992994	0.0	1.0399691421682251	-0.6041700711057482	0.0
42	1.4092105263157895	0.9637921000593105	-0.6479301179827833	0.0	0.9626702856697152	-0.6483279197014826	0.0	1.0304553022611873	-0.7304284451729854	0.0	0.9828052561903339	-0.820803784123761	0.0	1.0207223599509287	-0.8335106735097719	0.0	1.0137168400748948	-0.8433189566537639	0.0	0.9711008223979877	-0.8293376314969703	0.0	0.9665034951110003	-0.6468117317528065	0.0	1.028434950512059	-0.7282042880274671	0.0	0.9838592699917413	-0.8138415102473834	0.0	1.0226240134262639	-0.8249913339181115	0.0	1.0064200139826314	-0.8088005213163189	0.0	0.9676187951763011	-0.8163980921762222	0.0	0.9977588302760902	-0.5056896088536841	0.0	1.0164324678090215	-0.4402462340538236	0.0	1.030396948923049	-0.47478941073364594	0.0	0.9977788010535695	-0.5208096847674197	0.0	1.0308941074712847	-0.5713603527600634	0.0	1.07247526336383	-0.5942198899641105	0.0	0.990517906461197	-0.5185982177332573	0.0	1.024574521985046	-0.5662954952841132	0.0	1.0673216813212023	-0.5889183269444481	0.0
43	1.4427631578947369	0.9653878107864722	-0.6563313942871327	0.0	0.9641247761115589	-0.6573361706853622	0.0	1.0264439522854183	-0.7440258434211502	0.0	0.9829004366588244	-0.833477664509272	0.0	1.0200096885820078	-0.8441296357167533	0.0	1.0142494249282168	-0.8569281780176273	0.0	0.9712062464149992	-0.8415276750556893	0.0	0.9677279849239501	-0.6557162483725025	0.0	1.0238216303273766	-0.7412556093703976	0.0	0.9828982365990419	-0.8261818302321228	0.0	1.0192903144585237	-0.8305444079738712	0.0	1.0003612183547967	-0.8092988966769187	0.0	0.9669394112221437	-0.822436161994613	0.0	0.9911073399749696	-0.5125525832823657	0.0	1.0056738120933846	-0.44570167097370406	0.0	1.0215330002059237	-0.48048996228027574	0.0	0.9927648805772492	-0.5258743062398108	0.0	1.0410184990087772	-0.5587411877165455	0.0	1.0887012620231928	-0.5595082652965788	0.0	0.9845135919483579	-0.5240112734592902	0.0	1.0352772856689474	-0.5545258885953683	0.0	1.0824426290978921	-0.5573185837139065	0.0
44	1.4763157894736842	0.9681611596540488	-0.6578968262858	0.0	0.9672000920943318	-0.6593203201557831	0.0	1.0214668025176163	-0.7518227582057794	0.0	0.9825419968262101	-0.841525196645035	0.0	1.017810942241625	-0.8511083163638375	0.0	1.0126360010874742	-0.8656733195232668	0.0	0.9709429218095627	-0.8499424233484738	0.0	0.9696416440566346	-0.6575373620349987	0.0	1.018147925557465	-0.7484938814298181	0.0	0.9815909900584644	-0.8339072729096724	0.0	1.015534861073905	-0.8326994903347391	0.0	0.996186061149838	-0.8090285190883466	0.0	0.9660386905074891	-0.8245051710007993	0.0	0.9840883103822242	-0.5131975379828017	0.0	0.9935532223265311	-0.4453313389442723	0.0	1.0116674698451422	-0.4793708807589924	0.0	0.9873458099582975	-0.5238059983293635	0.0	1.0435271217763389	-0.5339673551420145	0.0	1.0882324657606381	-0.5126511230549672	0.0	0.977706799596876	-0.5224880527168333	0.0	1.0376447906336643	-0.5318401387600332	0.0	1.0814488172810446	-0.514358302551748	0.0
45	1.5098684210526316	0.972088411089375	-0.6512046601691085	0.0	0.9718941493760382	-0.6527736258686072	0.0	1.0163315518511984	-0.7515732970372918	0.0	0.9818440471554806	-0.8432411994236626	0.0	1.0137145444636102	-0.8535542648787285	0.0	1.008374252221249	-0.8675472346583647	0.0	0.970447140179645	-0.8528417052552257	0.0	0.9723204657034914	-0.6508926754837154	0.0	1.0123799968088745	-0.7478459219549086	0.0	0.9802510593253994	-0.8356181143233207	0.0	1.0119480284109883	-0.8322561081384207	0.0	0.9948956546397622	-0.8104516791414808	0.0	0.965161125357953	-0.8239099338413921	0.0	0.9765485134037033	-0.5066443095359662	0.0	0.9794257581419304	-0.438062785837535	0.0	1.0002618221343476	-0.4703850489348142	0.0	0.980993124751176	-0.5141000015613948	0.0	1.0369700466546283	-0.5001389967195794	0.0	1.0715587647066143	-0.4605305362479341	0.0	0.9701381034770625	-0.5133960779466982	0.0	1.030804910436291	-0.501383824200629	0.0	1.0647159566144269	-0.46671474244183925	0.0
